<svg width="108" height="20" viewBox="0 0 108 20" fill="none" xmlns="http://www.w3.org/2000/svg">
<path d="M6.025 19.375C7.79167 19.375 9.175 18.9792 10.175 18.1875C11.175 17.3958 11.675 16.3083 11.675 14.925C11.675 13.875 11.35 13.0458 10.7 12.4375C10.0583 11.8292 8.96667 11.325 7.425 10.925C6.375 10.6583 5.59167 10.4417 5.075 10.275C4.56667 10.1083 4.22917 9.94583 4.0625 9.7875C3.90417 9.62917 3.825 9.43333 3.825 9.2C3.825 8.80833 4.0125 8.50833 4.3875 8.3C4.77083 8.09167 5.275 8.00833 5.9 8.05C7.225 8.15 7.95 8.71667 8.075 9.75L11.55 9.125C11.375 7.9 10.775 6.92917 9.75 6.2125C8.725 5.4875 7.41667 5.125 5.825 5.125C4.19167 5.125 2.8875 5.50833 1.9125 6.275C0.9375 7.04167 0.45 8.075 0.45 9.375C0.45 10.4083 0.7875 11.225 1.4625 11.825C2.1375 12.4167 3.3 12.925 4.95 13.35C5.925 13.6083 6.64167 13.8167 7.1 13.975C7.56667 14.1333 7.86667 14.2958 8 14.4625C8.13333 14.6208 8.2 14.8333 8.2 15.1C8.2 15.525 8.03333 15.8583 7.7 16.1C7.36667 16.3333 6.89167 16.45 6.275 16.45C5.525 16.45 4.90417 16.2708 4.4125 15.9125C3.92917 15.5542 3.61667 15.0583 3.475 14.425L7.07805e-08 14.95C0.225 16.3583 0.858333 17.45 1.9 18.225C2.95 18.9917 4.325 19.375 6.025 19.375ZM20.6969 19.375C21.9969 19.375 23.1927 19.0333 24.2844 18.35C25.3844 17.6667 26.1885 16.7083 26.6969 15.475L23.2969 14.5C22.7802 15.6333 21.8469 16.2 20.4969 16.2C19.5719 16.2 18.8427 15.9417 18.3094 15.425C17.7844 14.9083 17.4594 14.1667 17.3344 13.2H26.8094C26.951 11.5667 26.7844 10.1458 26.3094 8.9375C25.8344 7.72917 25.101 6.79167 24.1094 6.125C23.1177 5.45833 21.9135 5.125 20.4969 5.125C19.1635 5.125 17.9844 5.42917 16.9594 6.0375C15.9344 6.6375 15.1302 7.48333 14.5469 8.575C13.9635 9.66667 13.6719 10.95 13.6719 12.425C13.6719 13.775 13.9677 14.975 14.5594 16.025C15.1594 17.0667 15.9844 17.8875 17.0344 18.4875C18.0927 19.0792 19.3135 19.375 20.6969 19.375ZM20.6469 8.075C21.4635 8.075 22.0885 8.27917 22.5219 8.6875C22.9635 9.09583 23.2469 9.75833 23.3719 10.675H17.4219C17.7802 8.94167 18.8552 8.075 20.6469 8.075ZM29.8818 19H33.2818V0.625H29.8818V19ZM43.3043 19.375C44.6043 19.375 45.8001 19.0333 46.8918 18.35C47.9918 17.6667 48.796 16.7083 49.3043 15.475L45.9043 14.5C45.3876 15.6333 44.4543 16.2 43.1043 16.2C42.1793 16.2 41.4501 15.9417 40.9168 15.425C40.3918 14.9083 40.0668 14.1667 39.9418 13.2H49.4168C49.5585 11.5667 49.3918 10.1458 48.9168 8.9375C48.4418 7.72917 47.7085 6.79167 46.7168 6.125C45.7251 5.45833 44.521 5.125 43.1043 5.125C41.771 5.125 40.5918 5.42917 39.5668 6.0375C38.5418 6.6375 37.7376 7.48333 37.1543 8.575C36.571 9.66667 36.2793 10.95 36.2793 12.425C36.2793 13.775 36.5751 14.975 37.1668 16.025C37.7668 17.0667 38.5918 17.8875 39.6418 18.4875C40.7001 19.0792 41.921 19.375 43.3043 19.375ZM43.2543 8.075C44.071 8.075 44.696 8.27917 45.1293 8.6875C45.571 9.09583 45.8543 9.75833 45.9793 10.675H40.0293C40.3876 8.94167 41.4626 8.075 43.2543 8.075ZM58.1893 19.375C59.7559 19.375 61.0726 18.9875 62.1393 18.2125C63.2059 17.4375 63.9309 16.3333 64.3143 14.9L60.8393 14.175C60.6393 14.825 60.3393 15.325 59.9393 15.675C59.5393 16.025 58.9559 16.2 58.1893 16.2C57.1643 16.2 56.3893 15.8375 55.8643 15.1125C55.3476 14.3792 55.0893 13.425 55.0893 12.25C55.0893 11.125 55.3351 10.1875 55.8268 9.4375C56.3268 8.67917 57.1143 8.3 58.1893 8.3C58.8143 8.3 59.3726 8.49583 59.8643 8.8875C60.3643 9.27917 60.7143 9.825 60.9143 10.525L64.3143 9.625C64.0143 8.23333 63.3226 7.1375 62.2393 6.3375C61.1643 5.52917 59.8309 5.125 58.2393 5.125C56.8643 5.125 55.6726 5.43333 54.6643 6.05C53.6559 6.66667 52.8726 7.5125 52.3143 8.5875C51.7643 9.6625 51.4893 10.8833 51.4893 12.25C51.4893 13.6 51.7559 14.8125 52.2893 15.8875C52.8226 16.9625 53.5893 17.8125 54.5893 18.4375C55.5893 19.0625 56.7893 19.375 58.1893 19.375ZM74.9145 19V16.175C74.1145 16.2833 73.3853 16.3167 72.727 16.275C72.0686 16.2333 71.5895 15.975 71.2895 15.5C71.1311 15.25 71.0436 14.9167 71.027 14.5C71.0186 14.075 71.0145 13.6 71.0145 13.075V8.125H74.9145V5.5H71.0145V1.75H67.6145V5.5H65.3145V8.125H67.6145V13.275C67.6145 14.0833 67.6228 14.8083 67.6395 15.45C67.6561 16.0833 67.8311 16.7083 68.1645 17.325C68.5311 17.9833 69.0645 18.4625 69.7645 18.7625C70.4728 19.0542 71.2728 19.2083 72.1645 19.225C73.0645 19.25 73.9811 19.175 74.9145 19ZM77.9229 19H81.3479V12.1C81.3479 10.5333 81.9645 9.46667 83.1979 8.9C83.5979 8.70833 84.0437 8.59583 84.5354 8.5625C85.0354 8.52083 85.4729 8.55833 85.8479 8.675V5.5C85.2395 5.425 84.6312 5.44167 84.0229 5.55C83.4145 5.65 82.8645 5.85 82.3729 6.15C82.0562 6.33333 81.777 6.55417 81.5354 6.8125C81.302 7.07083 81.0979 7.35833 80.9229 7.675V5.5H77.9229V19ZM88.4756 3.625H91.8756V0.625H88.4756V3.625ZM88.4756 19H91.8756V5.5H88.4756V19ZM101.573 19.375C103.14 19.375 104.456 18.9875 105.523 18.2125C106.59 17.4375 107.315 16.3333 107.698 14.9L104.223 14.175C104.023 14.825 103.723 15.325 103.323 15.675C102.923 16.025 102.34 16.2 101.573 16.2C100.548 16.2 99.773 15.8375 99.248 15.1125C98.7314 14.3792 98.473 13.425 98.473 12.25C98.473 11.125 98.7189 10.1875 99.2105 9.4375C99.7105 8.67917 100.498 8.3 101.573 8.3C102.198 8.3 102.756 8.49583 103.248 8.8875C103.748 9.27917 104.098 9.825 104.298 10.525L107.698 9.625C107.398 8.23333 106.706 7.1375 105.623 6.3375C104.548 5.52917 103.215 5.125 101.623 5.125C100.248 5.125 99.0564 5.43333 98.048 6.05C97.0397 6.66667 96.2564 7.5125 95.698 8.5875C95.148 9.6625 94.873 10.8833 94.873 12.25C94.873 13.6 95.1397 14.8125 95.673 15.8875C96.2064 16.9625 96.973 17.8125 97.973 18.4375C98.973 19.0625 100.173 19.375 101.573 19.375Z" fill="#81AFDD"/>
</svg>
